<svg xmlns="http://www.w3.org/2000/svg" width="43.996" height="31.992" viewBox="0 0 11.641 8.465" id="travel-ticket">
  <path d="m -813.34375,134.00391 c -1.64035,0 -2.99023,1.34785 -2.99023,2.98828 v 7.00586 a 1.0001006,1.0001006 0 0 0 0.99609,1.0039 c 2.77327,0 5.00586,2.22478 5.00586,4.99805 0,2.77327 -2.23259,4.99805 -5.00586,4.99805 a 1.0001006,1.0001006 0 0 0 -0.99609,1.0039 v 7.00586 c 0,1.64043 1.34988,2.98828 2.99023,2.98828 h 38.01563 c 1.64039,0 2.99023,-1.34788 2.99023,-2.98828 v -26.01562 c 0,-1.6404 -1.34984,-2.98828 -2.99023,-2.98828 z m 0,1.99218 h 12.00977 v 4.00196 h 2 v -4.00196 h 24.00586 c 0.56636,0 0.99023,0.42971 0.99023,0.9961 v 26.01562 c 0,0.56639 -0.42387,0.9961 -0.99023,0.9961 h -24.00586 v -4.00196 h -2 v 4.00196 h -12.00977 c -0.56632,0 -0.99023,-0.42974 -0.99023,-0.9961 v -6.42383 c 3.31184,-0.55067 5.99414,-3.12056 5.99414,-6.58398 0,-3.46342 -2.6823,-6.03331 -5.99414,-6.58398 v -6.42383 c 0,-0.56636 0.42391,-0.9961 0.99023,-0.9961 z m 29.00977,2 v 2.00196 h 2.00195 v -2.00196 z m -3.24805,1.34375 -1.4082,1.41797 1.4082,1.41797 1.41797,-1.41797 z m 8.49023,0 -1.41797,1.41797 1.41797,1.41797 1.41016,-1.41797 z m -4.24414,1.66211 c -2.1973,0 -4.00195,1.80271 -4.00195,4 0,2.1973 1.80465,4.00196 4.00195,4.00196 2.19731,0 4,-1.80466 4,-4.00196 0,-2.19729 -1.80269,-4 -4,-4 z m -17.99804,0.9961 v 4 h 2 v -4 z m 17.99804,1.0039 c 1.1164,0 2,0.88359 2,2 0,1.11642 -0.8836,2.00196 -2,2.00196 -1.11643,0 -2.00195,-0.88554 -2.00195,-2.00196 0,-1.11641 0.88552,-2 2.00195,-2 z m -6.99804,0.9961 v 2 h 2 v -2 z m 11.99414,0 v 2 h 2.00195 v -2 z m -9.24219,3.83203 -1.4082,1.41015 1.4082,1.41602 1.41797,-1.41602 z m 8.49023,0 -1.41797,1.41015 1.41797,1.41602 1.41016,-1.41602 z M -801.33398,148 v 4 h 2 v -4 z m 17,2 v 2 h 2.00195 v -2 z m -17,4.00195 v 4 h 2 v -4 z m 6.00195,2 v 2 h 7.99414 v -2 z m 15,0 v 2 h 3.99414 v -2 z m -15,4 v 2.00196 h 7.99414 v -2.00196 z m 15,0 v 2.00196 h 3.99414 v -2.00196 z" color="#000" font-family="sans-serif" font-weight="400" overflow="visible" style="line-height:normal;font-variant-ligatures:normal;font-variant-position:normal;font-variant-caps:normal;font-variant-numeric:normal;font-variant-alternates:normal;font-variant-east-asian:normal;font-feature-settings:normal;font-variation-settings:normal;text-indent:0;text-align:start;text-decoration-line:none;text-decoration-style:solid;text-decoration-color:#000;text-transform:none;text-orientation:mixed;shape-padding:0;shape-margin:0;inline-size:0;isolation:auto;mix-blend-mode:normal" transform="translate(215.988 -35.455)scale(.26458)"></path>
</svg>
